# xmcd CD database file
#
# Track frame offsets:
#	150
#	8507
#	27067
#	36620
#	40767
#	57007
#	71067
#	75672
#	110182
#	121360
#	133827
#	138285
#	150455
#	180765
#	195765
#
# Disc length: 3002 seconds
#
# Revision: 2
# Processed by: cddbd v1.4b41PL1 Copyright (c) Steve Scherf et al.
# Submitted via: Feurio! 1.50.2ß - http://www.feurio.com
#
DISCID=ba0bb80f
DTITLE=Hanns Dieter Hüsch - Wir sehen uns wieder 1/2
DYEAR=1900
DGENRE=
TTITLE0=Begrüssung
TTITLE1=Happy Hour
TTITLE2=Einstellung
TTITLE3=Gesang I
TTITLE4=Gross oder klein
TTITLE5=Korrupt
TTITLE6=Gesang II
TTITLE7=Im Café "Pilatus"
TTITLE8=Angebote
TTITLE9=Männer an den Herd
TTITLE10=Gesang III
TTITLE11=Nichts
TTITLE12=Was ich nicht kann, macht...
TTITLE13=Scherzartikel und Geduldspiel
TTITLE14=Deutschland mein Land
EXTD=
EXTT0=
EXTT1=
EXTT2=
EXTT3=
EXTT4=
EXTT5=
EXTT6=
EXTT7=
EXTT8=
EXTT9=
EXTT10=
EXTT11=
EXTT12=
EXTT13=
EXTT14=
PLAYORDER=
